<mxfile host="app.diagrams.net" agent="Mozilla/5.0 (Macintosh; Intel Mac OS X 10_15_7) AppleWebKit/537.36 (KHTML, like Gecko) Chrome/130.0.0.0 Safari/537.36" version="24.8.1">
  <diagram name="ページ1" id="FVTcpEp2CJ7xuvZSsAHT">
    <mxGraphModel dx="1468" dy="894" grid="1" gridSize="10" guides="1" tooltips="1" connect="1" arrows="1" fold="1" page="1" pageScale="1" pageWidth="827" pageHeight="1169" math="0" shadow="0">
      <root>
        <mxCell id="0" />
        <mxCell id="1" parent="0" />
        <mxCell id="TvIv7Z1SLECJAB246Cgc-1" value="" style="shape=image;verticalLabelPosition=bottom;labelBackgroundColor=default;verticalAlign=top;aspect=fixed;imageAspect=0;image=data:image/png,iVBORw0KGgoAAAANSUhEUgAABAAAAAQACAYAAAB/HSuDAAAADmVYSWZNTQAqAAAACAAAAAAAAADSU5MAAAAJb0ZGcwAAAAAAAAAAANoqts4AABrFSURBVHic7NwhbiNnAIbhpIrkgJVMY1RZKgjMDZYYLMsJrD1Db+AbFBdGPsGyBSF7g0CDSm6Rl1oKcCSD2lKv0PnB+zxkfviR0Whejeb2BoCizXw+f14sFm+jhwDTOhwOT8fj8dvluBm9BYBp3Y0eAMAY15f/7Xb7MnoHMK31en1zPB5HzwBggF9GDwAAAAD+fwIAAAAABAgAAAAAECAAAAAAQIAAAAAAAAECAAAAAAQIAAAAABAgAAAAAECAAAAAAAABAgAAAAAECAAAAAAQIAAAAABAgAAAAAAAAQIAAAAABAgAAAAAECAAAAAAQIAAAAAAAAECAAAAAAQIAAAAABAgAAAAAECAAAAAAAABAgAAAAAECAAAAAAQIAAAAABAgAAAAAAAAQIAAAAABAgAAAAAECAAAAAAQIAAAAAAAAECAAAAAAQIAAAAABAgAAAAAECAAAAAAAABAgAAAAAECAAAAAAQIAAAAABAgAAAAAAAAQIAAAAABAgAAAAAECAAAAAAQIAAAAAAAAECAAAAAAQIAAAAABAgAAAAAECAAAAAAAABAgAAAAAECAAAAAAQIAAAAABAgAAAAAAAAQIAAAAABAgAAAAAECAAAAAAQIAAAAAAAAECAAAAAAQIAAAAABAgAAAAAECAAAAAAAABAgAAAAAECAAAAAAQIAAAAABAgAAAAAAAAQIAAAAABAgAAAAAECAAAAAAQIAAAAAAAAECAAAAAAQIAAAAABAgAAAAAECAAAAAAAABAgAAAAAECAAAAAAQIAAAAABAgAAAAAAAAQIAAAAABAgAAAAAECAAAAAAQIAAAAAAAAECAAAAAAQIAAAAABAgAAAAAECAAAAAAAABAgAAAAAECAAAAAAQIAAAAABAgAAAAAAAAQIAAAAABAgAAAAAECAAAAAAQIAAAAAAAAECAAAAAAQIAAAAABAgAAAAAECAAAAAAAABAgAAAAAECAAAAAAQIAAAAABAgAAAAAAAAQIAAAAABAgAAAAAECAAAAAAQIAAAAAAAAECAAAAAAQIAAAAABAgAAAAAECAAAAAAAABAgAAAAAECAAAAAAQIAAAAABAgAAAAAAAAQIAAAAABAgAAAAAECAAAAAAQIAAAAAAAAECAAAAAAQIAAAAABAgAAAAAECAAAAAAAABAgAAAAAECAAAAAAQIAAAAABAgAAAAAAAAQIAAAAABAgAAAAAECAAAAAAQIAAAAAAAAECAAAAAAQIAAAAABAgAAAAAECAAAAAAAABAgAAAAAECAAAAAAQIAAAAABAgAAAAAAAAQIAAAAABAgAAAAAECAAAAAAQIAAAAAAAAECAAAAAAQIAAAAABAgAAAAAECAAAAAAAABAgAAAAAECAAAAAAQIAAAAABAgAAAAAAAAQIAAAAABAgAAAAAECAAAAAAQIAAAAAAAAECAAAAAAQIAAAAABAgAAAAAECAAAAAAAABAgAAAAAECAAAAAAQIAAAAABAgAAAAAAAAQIAAAAABAgAAAAAECAAAAAAQIAAAAAAAAECAAAAAAQIAAAAABAgAAAAAECAAAAAAAABAgAAAAAECAAAAAAQIAAAAABAgAAAAAAAAQIAAAAABAgAAAAAECAAAAAAQIAAAAAAAAECAAAAAAQIAAAAABAgAAAAAECAAAAAAAABAgAAAAAECAAAAAAQIAAAAABAgAAAAAAAAQIAAAAABAgAAAAAECAAAAAAQIAAAAAAAAECAAAAAAQIAAAAABAgAAAAAECAAAAAAAABAgAAAAAECAAAAAAQIAAAAABAgAAAAAAAAQIAAAAABAgAAAAAECAAAAAAQIAAAAAAAAECAAAAAAQIAAAAABAgAAAAAECAAAAAAAABAgAAAAAECAAAAAAQIAAAAABAgAAAAAAAAQIAAAAABAgAAAAAECAAAAAAQIAAAAAAAAECAAAAAAQIAAAAABAgAAAAAECAAAAAAAABAgAAAAAECAAAAAAQIAAAAABAgAAAAAAAAQIAAAAABAgAAAAAECAAAAAAQIAAAAAAAAECAAAAAAQIAAAAABAgAAAAAECAAAAAAAABAgAAAAAECAAAAAAQIAAAAABAgAAAAAAAAQIAAAAABAgAAAAAECAAAAAAQIAAAAAAAAECAAAAAAQIAAAAABAgAAAAAECAAAAAAAABAgAAAAAECAAAAAAQIAAAAABAgAAAAAAAAQIAAAAABAgAAAAAECAAAAAAQIAAAAAAAAECAAAAAAQIAAAAABAgAAAAAECAAAAAAAABAgAAAAAECAAAAAAQIAAAAABAgAAAAAAAAbejBzDcZvQAYIjPs9ns8f7+/ufoIcC0TqfTw8fHx+5y/DF6CzDEZvQAxrkbPYChNvP5/HmxWLyNHgJMa7/fP57P50+jdwDTu9771wC4XC7/Hr0FmNbhcHg6Ho/X42bwFAYRAOKuL//b7fZl9A5gWqvV6ul6fX19/X30FmBal/v/j+vV8x961uv1zX8BgCj/AAAAAIAAAQAAAAACBAAAAAAIEAAAAAAgQAAAAACAAAEAAAAAAgQAAAAACBAAAAAAIEAAAAAAgAABAAAAAAIEAAAAAAgQAAAAACBAAAAAAIAAAQAAAAACBAAAAAAIEAAAAAAgQAAAAACAAAEAAAAAAgQAAAAACBAAAAAAIEAAAAAAgAABAAAAAAIEAAAAAAgQAAAAACBAAAAAAIAAAQAAAAACBAAAAAAIEAAAAAAgQAAAAACAAAEAAAAAAgQAAAAACBAAAAAAIEAAAAAAgAABAAAAAAIEAAAAAAgQAAAAACBAAAAAAIAAAQAAAAACBAAAAAAIEAAAAAAgQAAAAACAAAEAAAAAAgQAAAAACBAAAAAAIEAAAAAAgAABAAAAAAIEAAAAAAgQAAAAACBAAAAAAIAAAQAAAAACBAAAAAAIEAAAAAAgQAAAAACAAAEAAAAAAgQAAAAACBAAAAAAIEAAAAAAgAABAAAAAAIEAAAAAAgQAAAAACBAAAAAAIAAAQAAAAACBAAAAAAIEAAAAAAgQAAAAACAAAEAAAAAAgQAAAAACBAAAAAAIEAAAAAAgAABAAAAAAIEAAAAAAgQAAAAACBAAAAAAIAAAQAAAAACBAAAAAAIEAAAAAAgQAAAAACAAAEAAAAAAgQAAAAACBAAAAAAIEAAAAAAgAABAAAAAAIEAAAAAAgQAAAAACBAAAAAAIAAAQAAAAACBAAAAAAIEAAAAAAgQAAAAACAAAEAAAAAAgQAAAAACBAAAAAAIEAAAAAAgAABAAAAAAIEAAAAAAgQAAAAACBAAAAAAIAAAQAAAAACBAAAAAAIEAAAAAAgQAAAAACAAAEAAAAAAgQAAAAACBAAAAAAIEAAAAAAgAABAAAAAAIEAAAAAAgQAAAAACBAAAAAAIAAAQAAAAACBAAAAAAIEAAAAAAgQAAAAACAAAEAAAAAAgQAAAAACBAAAAAAIEAAAAAAgAABAAAAAAIEAAAAAAgQAAAAACBAAAAAAIAAAQAAAAACBAAAAAAIEAAAAAAgQAAAAACAAAEAAAAAAgQAAAAACBAAAAAAIEAAAAAAgAABAAAAAAIEAAAAAAgQAAAAACBAAAAAAIAAAQAAAAACBAAAAAAIEAAAAAAgQAAAAACAAAEAAAAAAgQAAAAACBAAAAAAIEAAAAAAgAABAAAAAAIEAAAAAAgQAAAAACBAAAAAAIAAAQAAAAACBAAAAAAIEAAAAAAgQAAAAACAAAEAAAAAAgQAAAAACBAAAAAAIEAAAAAAgAABAAAAAAIEAAAAAAgQAAAAACBAAAAAAIAAAQAAAAACBAAAAAAIEAAAAAAgQAAAAACAAAEAAAAAAgQAAAAACBAAAAAAIEAAAAAAgAABAAAAAAIEAAAAAAgQAAAAACBAAAAAAIAAAQAAAAACBAAAAAAIEAAAAAAgQAAAAACAAAEAAAAAAgQAAAAACBAAAAAAIEAAAAAAgAABAAAAAAIEAAAAAAgQAAAAACBAAAAAAIAAAQAAAAACBAAAAAAIEAAAAAAgQAAAAACAAAEAAAAAAgQAAAAACBAAAAAAIEAAAAAAgAABAAAAAAIEAAAAAAgQAAAAACBAAAAAAIAAAQAAAAACBAAAAAAIEAAAAAAgQAAAAACAAAEAAAAAAgQAAAAACBAAAAAAIEAAAAAAgAABAAAAAAIEAAAAAAgQAAAAACBAAAAAAIAAAQAAAAACBAAAAAAIEAAAAAAgQAAAAACAAAEAAAAAAgQAAAAACBAAAAAAIEAAAAAAgAABAAAAAAIEAAAAAAgQAAAAACBAAAAAAIAAAQAAAAACBAAAAAAIEAAAAAAgQAAAAACAAAEAAAAAAgQAAAAACBAAAAAAIEAAAAAAgAABAAAAAAIEAAAAAAgQAAAAACBAAAAAAIAAAQAAAAACBAAAAAAIEAAAAAAgQAAAAACAAAEAAAAAAgQAAAAACBAAAAAAIEAAAAAAgAABAAAAAAIEAAAAAAgQAAAAACBAAAAAAIAAAQAAAAACBAAAAAAIEAAAAAAgQAAAAACAAAEAAAAAAgQAAAAACBAAAAAAIEAAAAAAgAABAAAAAAIEAAAAAAgQAAAAACBAAAAAAICA29EDGGozn8+fF4vF2+ghwLT2+/2X8/n86eKv0VuAab2/v/92d3f3vlwuv4/eAkzrcDg8HY/Hb5fjZvQWxhAA2IweAAzxeTabPd7f3/8cPQSY1ul0evj4+Nhdjj9GbwGG2IwewDgCAEDT5vHx8dftdvsyeggwrfV6/XW32/1z4yUAIMc/AAAAACBAAAAAAIAAAQAAAAACBAAAAAAIEAAAAAAgQAAAAACAAAEAAAAAAgQAAAAACBAAAAAAIEAAAAAAgAABAAAAAAIEAAAAAAgQAAAAACBAAAAAAIAAAQAAAAACBAAAAAAIEAAAAAAgQAAAAACAAAEAAAAAAgQAAAAACBAAAAAAIEAAAAAAgAABAAAAAAIEAAAAAAgQAAAAACBAAAAAAIAAAQAAAAACBAAAAAAIEAAAAAAgQAAAAACAAAEAAAAAAgQAAAAACBAAAAAAIEAAAAAAgAABAAAAAAIEAAAAAAgQAAAAACBAAAAAAIAAAQAAAAACBAAAAAAIEAAAAAAgQAAAAACAAAEAAAAAAgQAAAAACBAAAAAAIEAAAAAAgAABAAAAAAIEAAAAAAgQAAAAACBAAAAAAIAAAQAAAAACBAAAAAAIEAAAAAAgQAAAAACAAAEAAAAAAgQAAAAACBAAAAAAIEAAAAAAgAABAAAAAAIEAAAAAAgQAAAAACBAAAAAAIAAAQAAAAACBAAAAAAIEAAAAAAgQAAAAACAAAEAAAAAAgQAAAAACBAAAAAAIEAAAAAAgAABAAAAAAIEAAAAAAgQAAAAACBAAAAAAIAAAQAAAAACBAAAAAAIEAAAAAAgQAAAAACAAAEAAAAAAgQAAAAACBAAAAAAIEAAAAAAgAABAAAAAAIEAAAAAAgQAAAAACBAAAAAAIAAAQAAAAACBAAAAAAIEAAAAAAgQAAAAACAAAEAAAAAAgQAAAAACBAAAAAAIEAAAAAAgAABAAAAAAIEAAAAAAgQAAAAACBAAAAAAIAAAQAAAAACBAAAAAAIEAAAAAAgQAAAAACAAAEAAAAAAgQAAAAACBAAAAAAIEAAAAAAgAABAAAAAAIEAAAAAAgQAAAAACBAAAAAAIAAAQAAAAACBAAAAAAIEAAAAAAgQAAAAACAAAEAAAAAAgQAAAAACBAAAAAAIEAAAAAAgAABAAAAAAIEAAAAAAgQAAAAACBAAAAAAIAAAQAAAAACBAAAAAAIEAAAAAAgQAAAAACAAAEAAAAAAgQAAAAACBAAAAAAIEAAAAAAgAABAAAAAAIEAAAAAAgQAAAAACBAAAAAAIAAAQAAAAACBAAAAAAIEAAAAAAgQAAAAACAAAEAAAAAAgQAAAAACBAAAAAAIEAAAAAAgAABAAAAAAIEAAAAAAgQAAAAACBAAAAAAIAAAQAAAAACBAAAAAAIEAAAAAAgQAAAAACAAAEAAAAAAgQAAAAACBAAAAAAIEAAAAAAgAABAAAAAAIEAAAAAAgQAAAAACBAAAAAAIAAAQAAAAACBAAAAAAIEAAAAAAgQAAAAACAAAEAAAAAAgQAAAAACBAAAAAAIEAAAAAAgAABAAAAAAIEAAAAAAgQAAAAACBAAAAAAIAAAQAAAAACBAAAAAAIEAAAAAAgQAAAAACAAAEAAAAAAgQAAAAACBAAAAAAIEAAAAAAgAABAAAAAAIEAAAAAAgQAAAAACBAAAAAAIAAAQAAAAACBAAAAAAIEAAAAAAgQAAAAACAAAEAAAAAAgQAAAAACBAAAAAAIEAAAAAAgAABAAAAAAIEAAAAAAgQAAAAACBAAAAAAIAAAQAAAAACBAAAAAAIEAAAAAAgQAAAAACAAAEAAAAAAgQAAAAACBAAAAAAIEAAAAAAgAABAAAAAAIEAAAAAAgQAAAAACBAAAAAAIAAAQAAAAACBAAAAAAIEAAAAAAgQAAAAACAAAEAAAAAAgQAAAAACBAAAAAAIEAAAAAAgAABAAAAAAIEAAAAAAgQAAAAACBAAAAAAIAAAQAAAAACBAAAAAAIEAAAAAAgQAAAAACAAAEAAAAAAgQAAAAACBAAAAAAIEAAAAAAgAABAAAAAAIEAAAAAAgQAAAAACBAAAAAAIAAAQAAAAACBAAAAAAIEAAAAAAgQAAAAACAAAEAAAAAAgQAAAAACBAAAAAAIEAAAAAAgAABAAAAAAIEAAAAAAgQAAAAACBAAAAAAIAAAQAAAAACBAAAAAAIEAAAAAAgQAAAAACAAAEAAAAAAgQAAAAACBAAAAAAIEAAAAAAgAABAAAAAAIEAAAAAAgQAAAAACDgbvQAAMbY7/dfVqvV0+gdwLROp9PD5fLn6B0ATM8XAAAAABDgCwCAqOVy+X273b6M3gFMa71ef93tdqNnADCALwAAAAAgQAAAAACAAAEAAAAAAgQAAAAACBAAAAAAIEAAAAAAgAABAAAAAAIEAAAAAAgQAAAAACBAAAAAAIAAAQAAAAACBAAAAAAIEAAAAAAgQAAAAACAAAEAAAAAAgQAAAAACBAAAAAAIEAAAAAAgAABAAAAAAIEAAAAAAgQAAAAACBAAAAAAIAAAQAAAAACBAAAAAAIEAAAAAAgQAAAAACAAAEAAAAAAgQAAAAACBAAAAAAIEAAAAAAgAABAAAAAAIEAAAAAAgQAAAAACBAAAAAAIAAAQAAAAACBAAAAAAIEAAAAAAgQAAAAACAAAEAAAAAAgQAAAAACBAAAAAAIEAAAAAAgAABAAAAAAIEAAAAAAgQAAAAACBAAAAAAIAAAQAAAAACBAAAAAAIEAAAAAAgQAAAAACAAAEAAAAAAgQAAAAACBAAAAAAIEAAAAAAgAABAAAAAAIEAAAAAAgQAAAAACBAAAAAAIAAAQAAAAACBAAAAAAIEAAAAAAgQAAAAACAAAEAAAAAAgQAAAAACBAAAAAAIEAAAAAAgAABAAAAAAIEAAAAAAgQAAAAACBAAAAAAIAAAQAAAAACBAAAAAAIEAAAAAAgQAAAAACAAAEAAAAAAgQAAAAACBAAAAAAIEAAAAAAgAABAAAAAAIEAAAAAAgQAAAAACBAAAAAAIAAAQAAAAACBAAAAAAIEAAAAAAgQAAAAACAAAEAAAAAAgQAAAAACBAAAAAAIEAAAAAAgAABAAAAAAIEAAAAAAgQAAAAACBAAAAAAIAAAQAAAAACBAAAAAAIEAAAAAAgQAAAAACAAAEAAAAAAgQAAAAACBAAAAAAIEAAAAAAgAABAAAAAAIEAAAAAAgQAAAAACBAAAAAAIAAAQAAAAACBAAAAAAIEAAAAAAgQAAAAACAAAEAAAAAAgQAAAAACBAAAAAAIEAAAAAAgAABAAAAAAIEAAAAAAgQAAAAACBAAAAAAIAAAQAAAAACBAAAAAAIEAAAAAAgQAAAAACAAAEAAAAAAgQAAAAACBAAAAAAIEAAAAAAgAABAAAAAAIEAAAAAAgQAAAAACBAAAAAAIAAAQAAAAACBAAAAAAIEAAAAAAgQAAAAACAAAEAAAAAAgQAAAAACBAAAAAAIEAAAAAAgAABAAAAAAIEAAAAAAgQAAAAACBAAAAAAIAAAQAAAAACBAAAAAAIEAAAAAAgQAAAAACAAAEAAAAAAgQAAAAACBAAAAAAIEAAAAAAgAABAAAAAAIEAAAAAAgQAAAAACBAAAAAAIAAAQAAAAACBAAAAAAIEAAAAAAgQAAAAACAAAEAAAAAAgQAAAAACBAAAAAAIEAAAAAAgAABAAAAAAIEAAAAAAgQAAAAACBAAAAAAIAAAQAAAAACBAAAAAAIEAAAAAAgQAAAAACAAAEAAAAAAgQAAAAACBAAAAAAIEAAAAAAgAABAAAAAAIEAAAAAAgQAAAAACBAAAAAAIAAAQAAAAACBAAAAAAIEAAAAAAgQAAAAACAAAEAAAAAAgQAAAAACBAAAAAAIEAAAAAAgAABAAAAAAIEAAAAAAgQAAAAACBAAAAAAIAAAQAAAAACBAAAAAAIEAAAAAAgQAAAAACAAAEAAAAAAgQAAAAACBAAAAAAIEAAAAAAgAABAAAAAAIEAAAAAAgQAAAAACBAAAAAAIAAAQAAAAACBAAAAAAIEAAAAAAgQAAAAACAAAEAAAAAAgQAAAAACBAAAAAAIEAAAAAAgAABAAAAAAIEAAAAAAgQAAAAACBAAAAAAIAAAQAAAAACBAAAAAAIEAAAAAAgQAAAAACAAAEAAAAAAgQAAAAACBAAAAAAIEAAAAAAgAABAAAAAAIEAAAAAAgQAAAAACBAAAAAAIAAAQAAAAACBAAAAAAIEAAAAAAgQAAAAACAAAEAAAAAAgQAAAAACBAAAAAAIEAAAAAAgAABAAAAAAIEAAAAAAgQAAAAACBAAAAAAIB/27FDAwCBGAiChoJo6ItHfRtAEx+xMyb2TMwGCAAAAAAQIAAAAABAgAAAAAAAAQIAAAAABAgAAAAAECAAAAAAQIAAAAAAAAECAAAAAAQIAAAAABAgAAAAAECAAAAAAAABAgAAAAAECAAAAAAQIAAAAABAgAAAAAAAAdf0AABm7L3vtdb0DOCw//e/80zvAOC8F6Jhgx9jBkkxAAAADmVYSWZNTQAqAAAACAAAAAAAAADSU5MAAAAASUVORK5CYII=;" vertex="1" parent="1">
          <mxGeometry x="120" y="80" width="1024" height="1024" as="geometry" />
        </mxCell>
        <mxCell id="TvIv7Z1SLECJAB246Cgc-4" value="" style="rounded=0;whiteSpace=wrap;html=1;strokeColor=none;" vertex="1" parent="1">
          <mxGeometry x="503" y="80" width="257" height="255" as="geometry" />
        </mxCell>
        <mxCell id="TvIv7Z1SLECJAB246Cgc-26" value="" style="rounded=0;whiteSpace=wrap;html=1;strokeColor=none;" vertex="1" parent="1">
          <mxGeometry x="503.5" y="335" width="257" height="255" as="geometry" />
        </mxCell>
        <mxCell id="TvIv7Z1SLECJAB246Cgc-27" value="" style="rounded=0;whiteSpace=wrap;html=1;strokeColor=none;" vertex="1" parent="1">
          <mxGeometry x="246.5" y="336" width="257" height="255" as="geometry" />
        </mxCell>
        <mxCell id="TvIv7Z1SLECJAB246Cgc-28" value="" style="rounded=0;whiteSpace=wrap;html=1;strokeColor=none;" vertex="1" parent="1">
          <mxGeometry x="760.5" y="336" width="257" height="255" as="geometry" />
        </mxCell>
        <mxCell id="TvIv7Z1SLECJAB246Cgc-29" value="" style="rounded=0;whiteSpace=wrap;html=1;strokeColor=none;" vertex="1" parent="1">
          <mxGeometry x="502.5" y="590" width="257" height="255" as="geometry" />
        </mxCell>
        <mxCell id="TvIv7Z1SLECJAB246Cgc-30" value="" style="rounded=0;whiteSpace=wrap;html=1;strokeColor=none;" vertex="1" parent="1">
          <mxGeometry x="503" y="845" width="257" height="255" as="geometry" />
        </mxCell>
        <mxCell id="TvIv7Z1SLECJAB246Cgc-2" value="" style="ellipse;whiteSpace=wrap;html=1;fillColor=#e51400;strokeColor=none;fontColor=#ffffff;" vertex="1" parent="1">
          <mxGeometry x="607" y="430" width="50" height="50" as="geometry" />
        </mxCell>
        <mxCell id="TvIv7Z1SLECJAB246Cgc-3" value="" style="ellipse;whiteSpace=wrap;html=1;fillColor=#000000;strokeColor=none;fontColor=#ffffff;" vertex="1" parent="1">
          <mxGeometry x="530" y="620" width="50" height="50" as="geometry" />
        </mxCell>
        <mxCell id="TvIv7Z1SLECJAB246Cgc-6" value="" style="ellipse;whiteSpace=wrap;html=1;fillColor=#000000;strokeColor=none;fontColor=#ffffff;" vertex="1" parent="1">
          <mxGeometry x="680" y="770" width="50" height="50" as="geometry" />
        </mxCell>
        <mxCell id="TvIv7Z1SLECJAB246Cgc-7" value="" style="ellipse;whiteSpace=wrap;html=1;fillColor=#000000;strokeColor=none;fontColor=#ffffff;" vertex="1" parent="1">
          <mxGeometry x="530" y="889" width="50" height="50" as="geometry" />
        </mxCell>
        <mxCell id="TvIv7Z1SLECJAB246Cgc-8" value="" style="ellipse;whiteSpace=wrap;html=1;fillColor=#000000;strokeColor=none;fontColor=#ffffff;" vertex="1" parent="1">
          <mxGeometry x="607" y="889" width="50" height="50" as="geometry" />
        </mxCell>
        <mxCell id="TvIv7Z1SLECJAB246Cgc-9" value="" style="ellipse;whiteSpace=wrap;html=1;fillColor=#000000;strokeColor=none;fontColor=#ffffff;" vertex="1" parent="1">
          <mxGeometry x="690" y="889" width="50" height="50" as="geometry" />
        </mxCell>
        <mxCell id="TvIv7Z1SLECJAB246Cgc-10" value="" style="ellipse;whiteSpace=wrap;html=1;fillColor=#000000;strokeColor=none;fontColor=#ffffff;" vertex="1" parent="1">
          <mxGeometry x="534" y="1017" width="50" height="50" as="geometry" />
        </mxCell>
        <mxCell id="TvIv7Z1SLECJAB246Cgc-11" value="" style="ellipse;whiteSpace=wrap;html=1;fillColor=#000000;strokeColor=none;fontColor=#ffffff;" vertex="1" parent="1">
          <mxGeometry x="611" y="1017" width="50" height="50" as="geometry" />
        </mxCell>
        <mxCell id="TvIv7Z1SLECJAB246Cgc-12" value="" style="ellipse;whiteSpace=wrap;html=1;fillColor=#000000;strokeColor=none;fontColor=#ffffff;" vertex="1" parent="1">
          <mxGeometry x="694" y="1017" width="50" height="50" as="geometry" />
        </mxCell>
        <mxCell id="TvIv7Z1SLECJAB246Cgc-13" value="" style="ellipse;whiteSpace=wrap;html=1;fillColor=#000000;strokeColor=none;fontColor=#ffffff;" vertex="1" parent="1">
          <mxGeometry x="950" y="360" width="50" height="50" as="geometry" />
        </mxCell>
        <mxCell id="TvIv7Z1SLECJAB246Cgc-14" value="" style="ellipse;whiteSpace=wrap;html=1;fillColor=#000000;strokeColor=none;fontColor=#ffffff;" vertex="1" parent="1">
          <mxGeometry x="800" y="510" width="50" height="50" as="geometry" />
        </mxCell>
        <mxCell id="TvIv7Z1SLECJAB246Cgc-15" value="" style="ellipse;whiteSpace=wrap;html=1;fillColor=#000000;strokeColor=none;fontColor=#ffffff;" vertex="1" parent="1">
          <mxGeometry x="870" y="430" width="50" height="50" as="geometry" />
        </mxCell>
        <mxCell id="TvIv7Z1SLECJAB246Cgc-16" value="" style="ellipse;whiteSpace=wrap;html=1;fillColor=#000000;strokeColor=none;fontColor=#ffffff;" vertex="1" parent="1">
          <mxGeometry x="280" y="370" width="50" height="50" as="geometry" />
        </mxCell>
        <mxCell id="TvIv7Z1SLECJAB246Cgc-17" value="" style="ellipse;whiteSpace=wrap;html=1;fillColor=#000000;strokeColor=none;fontColor=#ffffff;" vertex="1" parent="1">
          <mxGeometry x="430" y="520" width="50" height="50" as="geometry" />
        </mxCell>
        <mxCell id="TvIv7Z1SLECJAB246Cgc-18" value="" style="ellipse;whiteSpace=wrap;html=1;fillColor=#000000;strokeColor=none;fontColor=#ffffff;" vertex="1" parent="1">
          <mxGeometry x="280" y="520" width="50" height="50" as="geometry" />
        </mxCell>
        <mxCell id="TvIv7Z1SLECJAB246Cgc-19" value="" style="ellipse;whiteSpace=wrap;html=1;fillColor=#000000;strokeColor=none;fontColor=#ffffff;" vertex="1" parent="1">
          <mxGeometry x="430" y="370" width="50" height="50" as="geometry" />
        </mxCell>
        <mxCell id="TvIv7Z1SLECJAB246Cgc-20" value="" style="ellipse;whiteSpace=wrap;html=1;fillColor=#000000;strokeColor=none;fontColor=#ffffff;" vertex="1" parent="1">
          <mxGeometry x="534" y="105" width="50" height="50" as="geometry" />
        </mxCell>
        <mxCell id="TvIv7Z1SLECJAB246Cgc-21" value="" style="ellipse;whiteSpace=wrap;html=1;fillColor=#000000;strokeColor=none;fontColor=#ffffff;" vertex="1" parent="1">
          <mxGeometry x="684" y="255" width="50" height="50" as="geometry" />
        </mxCell>
        <mxCell id="TvIv7Z1SLECJAB246Cgc-22" value="" style="ellipse;whiteSpace=wrap;html=1;fillColor=#000000;strokeColor=none;fontColor=#ffffff;" vertex="1" parent="1">
          <mxGeometry x="534" y="255" width="50" height="50" as="geometry" />
        </mxCell>
        <mxCell id="TvIv7Z1SLECJAB246Cgc-23" value="" style="ellipse;whiteSpace=wrap;html=1;fillColor=#000000;strokeColor=none;fontColor=#ffffff;" vertex="1" parent="1">
          <mxGeometry x="684" y="105" width="50" height="50" as="geometry" />
        </mxCell>
        <mxCell id="TvIv7Z1SLECJAB246Cgc-24" value="" style="ellipse;whiteSpace=wrap;html=1;fillColor=#000000;strokeColor=none;fontColor=#ffffff;" vertex="1" parent="1">
          <mxGeometry x="611" y="180" width="50" height="50" as="geometry" />
        </mxCell>
      </root>
    </mxGraphModel>
  </diagram>
</mxfile>
